<svg width="198" height="52" viewBox="0 0 198 52" xmlns="http://www.w3.org/2000/svg"><path d="M84.06 30.43a6.72 6.72 0 1 1 0-13.44 6.72 6.72 0 0 1 0 13.44zm0-20.77a14 14 0 1 0 6.72 26.37v1.7a6.73 6.73 0 0 1-6.72 6.72 3.66 3.66 0 0 0 0 7.32c7.72-.027 13.973-6.28 14-14v-14c-.027-7.72-6.28-13.973-14-14v-.11zM14.88 30.43a6.72 6.72 0 1 1-.02-13.44 6.72 6.72 0 0 1 .02 13.44zm-14-6.77v20a3.66 3.66 0 1 0 7.32 0V36a13.91 13.91 0 0 0 6.71 1.71c7.757 0 14.045-6.288 14.045-14.045S22.667 9.62 14.91 9.62C7.16 9.687.907 15.94.88 23.66zm53.38-14c-7.72.027-13.973 6.28-14 14v10.38a3.66 3.66 0 1 0 7.32 0V23.71a6.71 6.71 0 1 1 13.42 0v10.38a3.66 3.66 0 1 0 7.31 0V23.71c-.027-7.72-6.28-13.973-14-14l-.05-.05zm89.42 20.65a6.72 6.72 0 1 1-.02-13.44 6.72 6.72 0 0 1 .02 13.44zm0-20.77c-7.732 0-14 6.268-14 14s6.268 14 14 14 14-6.268 14-14c-.027-7.72-6.28-13.973-14-14zm-29.81 20.89a6.72 6.72 0 1 1 6.72-6.72 6.73 6.73 0 0 1-6.72 6.72zM124.24.06a3.66 3.66 0 0 0-3.66 3.66v7.66a14 14 0 1 0 7.31 12.33v-20a3.66 3.66 0 0 0-3.66-3.66l.01.01zm-89.93 9.6a3.66 3.66 0 0 0-3.66 3.66v20.76a3.66 3.66 0 1 0 7.32 0V13.33a3.66 3.66 0 0 0-3.66-3.66v-.01zm-3.66-5.94a3.66 3.66 0 1 0 7.32 0 3.66 3.66 0 0 0-7.32 0zm148.01 33.91a3.66 3.66 0 0 0 3.66-3.67V18.4c0-.845.685-1.53 1.53-1.53a6.72 6.72 0 0 1 6.71 6.72v10.33a3.66 3.66 0 1 0 7.32 0V23.59c-.027-7.72-6.28-13.973-14-14a13.78 13.78 0 0 0-5.19 1 13.79 13.79 0 0 0-5.19-1c-7.718.033-13.967 6.282-14 14v10.33a3.66 3.66 0 0 0 7.32 0V23.59a6.72 6.72 0 0 1 6.71-6.72c.845 0 1.53.685 1.53 1.53v15.52a3.66 3.66 0 0 0 3.66 3.67l-.06.04z" fill="#000" fill-rule="evenodd"/></svg>
