<svg width="50" height="41" viewBox="0 0 50 41" xmlns="http://www.w3.org/2000/svg"><path d="M23.78 19.64l.43-.12a83 83 0 0 0 9.41-3.45 34.78 34.78 0 0 0 8.66-4.93 18.81 18.81 0 0 0 6.07-8.58A7.7 7.7 0 0 0 48.9.82C44.69 6.57 28 7.17 28 7.17l3.94-3.61A55 55 0 0 0 0 13.92a30.08 30.08 0 0 1 16.94 7.57c2.26-.7 4.57-1.2 6.84-1.83v-.02zm26.17-.57a91.94 91.94 0 0 0-31.4 4 30.25 30.25 0 0 1 5.28 7.53c8.41-4.68 20.07-10.66 26.12-11.51v-.02zM24.89 32.99a30 30 0 0 1 1.9 8l14.67-15.07-16.57 7.07z" fill="#000" fill-rule="evenodd"/></svg>
